<svg width="20" height="20" viewBox="0 0 20 20" fill="none" xmlns="http://www.w3.org/2000/svg">
<path fill-rule="evenodd" clip-rule="evenodd" d="M15.7087 5.37543C16.0082 5.07603 16.0082 4.5906 15.7087 4.2912C15.4094 3.9918 14.9239 3.9918 14.6246 4.2912L9.99999 8.91576L5.37544 4.2912C5.07603 3.9918 4.5906 3.9918 4.2912 4.2912C3.9918 4.5906 3.9918 5.07603 4.2912 5.37543L8.91576 9.99999L4.2912 14.6245C3.9918 14.924 3.9918 15.4093 4.2912 15.7088C4.5906 16.0081 5.07603 16.0081 5.37544 15.7088L9.99999 11.0842L14.6246 15.7088C14.9239 16.0081 15.4094 16.0081 15.7087 15.7088C16.0082 15.4093 16.0082 14.924 15.7087 14.6245L11.0842 9.99999L15.7087 5.37543Z" fill="#976819"/>
</svg>
